<svg width="36" height="33" viewBox="0 0 36 33" fill="none" xmlns="http://www.w3.org/2000/svg">
<path d="M35.54 25.6112V1.99204C35.54 1.71197 35.4136 1.44337 35.1885 1.24533C34.9635 1.04729 34.6583 0.936035 34.34 0.936035H1.65999C1.34173 0.936035 1.03651 1.04729 0.811463 1.24533C0.58642 1.44337 0.459991 1.71197 0.459991 1.99204V31.208C0.45997 31.4263 0.536774 31.6391 0.679844 31.8174C0.822913 31.9956 1.02522 32.1305 1.25894 32.2034C1.49267 32.2763 1.74632 32.2838 1.98504 32.2246C2.22375 32.1655 2.43578 32.0428 2.59199 31.8733L7.39199 26.6672H34.34C34.6583 26.6672 34.9635 26.556 35.1885 26.3579C35.4136 26.1599 35.54 25.8913 35.54 25.6112ZM33.14 24.5552H6.79999C6.62139 24.5552 6.44504 24.5903 6.28381 24.6579C6.12257 24.7255 5.98051 24.8239 5.86799 24.946L2.85999 28.216V3.04803H33.14V24.5552Z" fill="#564F4F"/>
</svg>
